<svg width="216" height="225" viewBox="0 0 216 225" fill="none" xmlns="http://www.w3.org/2000/svg">
<g opacity="0.8" clip-path="url(#clip0_2234_9590)">
<path d="M34.0829 163.334C35.2502 164.231 35.4507 165.782 34.5507 166.953C33.6506 168.125 32.1002 168.33 30.9329 167.433C29.7656 166.536 29.5651 164.985 30.4652 163.814C31.3652 162.643 33.0129 162.512 34.0829 163.334Z" fill="#FFCF2D"/>
<path d="M47.5082 145.865C48.6755 146.762 48.876 148.313 47.9759 149.485C47.0759 150.656 45.5255 150.861 44.3582 149.964C43.1909 149.067 42.9904 147.516 43.8905 146.345C44.7155 145.271 46.4382 145.043 47.5082 145.865Z" fill="#FFCF2D"/>
<path d="M60.8583 128.492C62.0256 129.389 62.2261 130.94 61.326 132.112C60.426 133.283 58.8756 133.488 57.7083 132.591C56.541 131.694 56.3405 130.143 57.2406 128.972C58.1406 127.801 59.7883 127.67 60.8583 128.492Z" fill="#FFCF2D"/>
<path d="M74.2836 111.023C75.4509 111.921 75.6514 113.472 74.7513 114.643C73.8513 115.814 72.3008 116.02 71.1336 115.123C69.9663 114.226 69.7658 112.674 70.6659 111.503C71.5659 110.332 73.2136 110.201 74.2836 111.023Z" fill="#FFCF2D"/>
<path d="M87.7089 93.5528C88.8762 94.4498 89.0766 96.001 88.1766 97.1721C87.2766 98.3433 85.7261 98.5489 84.5589 97.6518C83.3916 96.7548 83.1911 95.2037 84.0911 94.0325C84.9162 92.9589 86.6389 92.7305 87.7089 93.5528Z" fill="#FFCF2D"/>
<path d="M101.134 76.0821C102.301 76.9791 102.502 78.5303 101.602 79.7014C100.702 80.8726 99.1514 81.0782 97.9841 80.1811C96.8169 79.2841 96.6164 77.733 97.5164 76.5618C98.4165 75.3906 100.064 75.2598 101.134 76.0821Z" fill="#FFCF2D"/>
<path d="M114.484 58.711C115.652 59.608 115.852 61.1592 114.952 62.3303C114.052 63.5015 112.502 63.7071 111.334 62.81C110.167 61.913 109.967 60.3619 110.867 59.1907C111.767 58.0195 113.414 57.8887 114.484 58.711Z" fill="#FFCF2D"/>
<path d="M127.91 41.2403C129.077 42.1373 129.277 43.6885 128.377 44.8596C127.477 46.0308 125.927 46.2364 124.76 45.3393C123.592 44.4423 123.392 42.8912 124.292 41.72C125.192 40.5488 126.84 40.418 127.91 41.2403Z" fill="#FFCF2D"/>
<path d="M141.335 23.7715C142.502 24.6686 142.703 26.2197 141.803 27.3909C140.903 28.562 139.352 28.7676 138.185 27.8706C137.018 26.9736 136.817 25.4224 137.717 24.2513C138.542 23.1777 140.265 22.9493 141.335 23.7715Z" fill="#FFCF2D"/>
<path d="M48.5766 174.473C49.7439 175.37 49.9443 176.921 49.0443 178.092C48.1443 179.263 46.5938 179.469 45.4265 178.572C44.2593 177.675 44.0588 176.124 44.9588 174.952C45.8588 173.781 47.4093 173.576 48.5766 174.473Z" fill="#FFCF2D"/>
<path d="M62.0019 157.002C63.1692 157.899 63.3696 159.45 62.4696 160.621C61.5696 161.793 60.0191 161.998 58.8518 161.101C57.6845 160.204 57.4841 158.653 58.3841 157.482C59.2091 156.408 60.8346 156.105 62.0019 157.002Z" fill="#FFCF2D"/>
<path d="M75.352 139.631C76.5193 140.528 76.7197 142.079 75.8197 143.25C74.9197 144.421 73.3692 144.627 72.2019 143.73C71.0346 142.833 70.8342 141.282 71.7342 140.111C72.6342 138.939 74.1847 138.734 75.352 139.631Z" fill="#FFCF2D"/>
<path d="M88.7773 122.16C89.9446 123.057 90.145 124.608 89.245 125.78C88.345 126.951 86.7945 127.156 85.6272 126.259C84.4599 125.362 84.2595 123.811 85.1595 122.64C86.0595 121.469 87.61 121.263 88.7773 122.16Z" fill="#FFCF2D"/>
<path d="M102.203 104.691C103.37 105.588 103.57 107.14 102.67 108.311C101.77 109.482 100.22 109.688 99.0525 108.791C97.8852 107.893 97.6848 106.342 98.5848 105.171C99.4098 104.098 101.035 103.794 102.203 104.691Z" fill="#FFCF2D"/>
<path d="M115.628 87.2208C116.795 88.1178 116.996 89.6689 116.096 90.8401C115.196 92.0113 113.645 92.2169 112.478 91.3198C111.311 90.4228 111.11 88.8716 112.01 87.7005C112.91 86.5293 114.461 86.3237 115.628 87.2208Z" fill="#FFCF2D"/>
<path d="M128.978 69.8497C130.145 70.7467 130.346 72.2978 129.446 73.469C128.546 74.6402 126.995 74.8458 125.828 73.9487C124.661 73.0517 124.46 71.5005 125.36 70.3294C126.26 69.1582 127.811 68.9526 128.978 69.8497Z" fill="#FFCF2D"/>
<path d="M142.403 52.3789C143.571 53.276 143.771 54.8271 142.871 55.9983C141.971 57.1695 140.42 57.3751 139.253 56.478C138.086 55.581 137.885 54.0298 138.785 52.8587C139.685 51.6875 141.236 51.4819 142.403 52.3789Z" fill="#FFCF2D"/>
<path d="M155.829 34.9102C156.996 35.8072 157.196 37.3584 156.296 38.5295C155.396 39.7007 153.846 39.9063 152.678 39.0093C151.511 38.1122 151.311 36.5611 152.211 35.3899C153.036 34.3164 154.661 34.0132 155.829 34.9102Z" fill="#FFCF2D"/>
<path d="M5.1928 141.133C6.36008 142.03 6.56053 143.581 5.66052 144.752C4.7605 145.923 3.21003 146.129 2.04274 145.232C0.875462 144.335 0.675012 142.784 1.57503 141.613C2.47504 140.441 4.02552 140.236 5.1928 141.133Z" fill="#FFCF2D"/>
<path d="M18.6181 123.662C19.7854 124.559 19.9858 126.11 19.0858 127.281C18.1858 128.453 16.6353 128.658 15.468 127.761C14.3008 126.864 14.1003 125.313 15.0003 124.142C15.8253 123.068 17.4508 122.765 18.6181 123.662Z" fill="#FFCF2D"/>
<path d="M31.9682 106.291C33.1355 107.188 33.3359 108.739 32.4359 109.91C31.5359 111.082 29.9854 111.287 28.8181 110.39C27.6509 109.493 27.5254 107.844 28.3504 106.771C29.2504 105.6 30.8009 105.394 31.9682 106.291Z" fill="#FFCF2D"/>
<path d="M45.3935 88.8204C46.5608 89.7174 46.7612 91.2685 45.8612 92.4397C44.9612 93.6109 43.4107 93.8165 42.2434 92.9194C41.0761 92.0224 40.9507 90.3736 41.7757 89.3001C42.6007 88.2265 44.2262 87.9233 45.3935 88.8204Z" fill="#FFCF2D"/>
<path d="M58.8188 71.3516C59.9861 72.2486 60.1865 73.7998 59.2865 74.971C58.3865 76.1421 56.836 76.3477 55.6687 75.4507C54.5014 74.5536 54.301 73.0025 55.201 71.8313C56.026 70.7578 57.6515 70.4546 58.8188 71.3516Z" fill="#FFCF2D"/>
<path d="M72.2441 53.8809C73.4114 54.7779 73.6118 56.3291 72.7118 57.5002C71.8118 58.6714 70.2613 58.877 69.094 57.98C67.9267 57.0829 67.7263 55.5318 68.6263 54.3606C69.5263 53.1895 71.0768 52.9839 72.2441 53.8809Z" fill="#FFCF2D"/>
<path d="M85.5942 36.5098C86.7614 37.4069 86.9619 38.958 86.0619 40.1292C85.1619 41.3003 83.6114 41.5059 82.4441 40.6089C81.2768 39.7118 81.0764 38.1607 81.9764 36.9895C82.8764 35.8184 84.4269 35.6128 85.5942 36.5098Z" fill="#FFCF2D"/>
<path d="M99.0195 19.0391C100.187 19.9361 100.387 21.4873 99.4872 22.6585C98.5872 23.8296 97.0367 24.0352 95.8694 23.1382C94.7021 22.2411 94.5017 20.69 95.4017 19.5188C96.3017 18.3477 97.8522 18.1421 99.0195 19.0391Z" fill="#FFCF2D"/>
<path d="M112.445 1.57038C113.612 2.46741 113.812 4.01855 112.912 5.1897C112.012 6.36086 110.462 6.56646 109.295 5.66942C108.127 4.77239 107.927 3.22124 108.827 2.05008C109.652 0.976519 111.277 0.673341 112.445 1.57038Z" fill="#FFCF2D"/>
<path d="M19.6865 152.272C20.8537 153.169 21.0542 154.72 20.1542 155.891C19.2542 157.062 17.6064 157.193 16.5364 156.371C15.3691 155.474 15.1687 153.922 16.0687 152.751C16.9687 151.58 18.5192 151.374 19.6865 152.272Z" fill="#FFCF2D"/>
<path d="M33.1117 134.801C34.279 135.698 34.4795 137.249 33.5795 138.42C32.6794 139.591 31.129 139.797 29.9617 138.9C28.7944 138.003 28.594 136.452 29.494 135.281C30.319 134.207 31.9445 133.904 33.1117 134.801Z" fill="#FFCF2D"/>
<path d="M46.4618 117.43C47.6291 118.327 47.8296 119.878 46.9296 121.049C46.0295 122.22 44.4791 122.426 43.3118 121.529C42.1445 120.632 41.9441 119.081 42.8441 117.909C43.7441 116.738 45.2946 116.533 46.4618 117.43Z" fill="#FFCF2D"/>
<path d="M59.8871 99.959C61.0544 100.856 61.2549 102.407 60.3549 103.578C59.4548 104.75 57.9044 104.955 56.7371 104.058C55.5698 103.161 55.3693 101.61 56.2694 100.439C57.1694 99.2676 58.7199 99.062 59.8871 99.959Z" fill="#FFCF2D"/>
<path d="M73.3124 82.4903C74.4797 83.3873 74.6802 84.9385 73.7801 86.1096C72.8801 87.2808 71.3297 87.4864 70.1624 86.5893C68.9951 85.6923 68.7946 84.1412 69.6947 82.97C70.5197 81.8964 72.1451 81.5932 73.3124 82.4903Z" fill="#FFCF2D"/>
<path d="M86.7377 65.0196C87.905 65.9166 88.1055 67.4678 87.2054 68.6389C86.3054 69.8101 84.7549 70.0157 83.5877 69.1186C82.4204 68.2216 82.2199 66.6705 83.1199 65.4993C84.02 64.3281 85.5704 64.1225 86.7377 65.0196Z" fill="#FFCF2D"/>
<path d="M100.088 47.6485C101.255 48.5455 101.456 50.0967 100.556 51.2678C99.6555 52.439 98.105 52.6446 96.9378 51.7475C95.7705 50.8505 95.57 49.2994 96.47 48.1282C97.3701 46.957 98.9205 46.7515 100.088 47.6485Z" fill="#FFCF2D"/>
<path d="M113.513 30.1778C114.68 31.0748 114.881 32.626 113.981 33.7971C113.081 34.9683 111.53 35.1739 110.363 34.2768C109.196 33.3798 108.995 31.8287 109.895 30.6575C110.795 29.4863 112.346 29.2807 113.513 30.1778Z" fill="#FFCF2D"/>
<path d="M126.938 12.7071C128.106 13.6041 128.306 15.1553 127.406 16.3264C126.506 17.4976 124.956 17.7032 123.788 16.8061C122.621 15.9091 122.421 14.358 123.321 13.1868C124.146 12.1132 125.771 11.81 126.938 12.7071Z" fill="#FFCF2D"/>
<path d="M62.9736 185.537C64.1408 186.434 64.3413 187.985 63.4413 189.156C62.5413 190.328 60.9908 190.533 59.8235 189.636C58.6562 188.739 58.4558 187.188 59.3558 186.017C60.2558 184.846 61.9036 184.715 62.9736 185.537Z" fill="#FFCF2D"/>
<path d="M76.3989 168.066C77.5661 168.963 77.7666 170.515 76.8666 171.686C75.9665 172.857 74.4161 173.063 73.2488 172.166C72.0815 171.268 71.8811 169.717 72.7811 168.546C73.6061 167.473 75.3288 167.244 76.3989 168.066Z" fill="#FFCF2D"/>
<path d="M89.749 150.693C90.9162 151.59 91.1167 153.142 90.2167 154.313C89.3167 155.484 87.7662 155.69 86.5989 154.792C85.4316 153.895 85.2312 152.344 86.1312 151.173C87.0312 150.002 88.6789 149.871 89.749 150.693Z" fill="#FFCF2D"/>
<path d="M103.174 133.225C104.342 134.122 104.542 135.673 103.642 136.844C102.742 138.015 101.191 138.221 100.024 137.324C98.8569 136.427 98.6565 134.876 99.5565 133.704C100.456 132.533 102.104 132.402 103.174 133.225Z" fill="#FFCF2D"/>
<path d="M116.6 115.754C117.767 116.651 117.967 118.202 117.067 119.373C116.167 120.544 114.617 120.75 113.449 119.853C112.282 118.956 112.082 117.405 112.982 116.234C113.807 115.16 115.53 114.932 116.6 115.754Z" fill="#FFCF2D"/>
<path d="M130.025 98.2852C131.192 99.1822 131.393 100.733 130.493 101.905C129.593 103.076 128.042 103.281 126.875 102.384C125.707 101.487 125.507 99.9361 126.407 98.7649C127.307 97.5938 128.955 97.4629 130.025 98.2852Z" fill="#FFCF2D"/>
<path d="M143.375 80.9121C144.542 81.8092 144.743 83.3603 143.843 84.5315C142.943 85.7027 141.392 85.9083 140.225 85.0112C139.058 84.1142 138.857 82.563 139.757 81.3919C140.657 80.2207 142.305 80.0899 143.375 80.9121Z" fill="#FFCF2D"/>
<path d="M156.8 63.4434C157.968 64.3404 158.168 65.8916 157.268 67.0627C156.368 68.2339 154.817 68.4395 153.65 67.5425C152.483 66.6454 152.282 65.0943 153.182 63.9231C154.082 62.752 155.73 62.6211 156.8 63.4434Z" fill="#FFCF2D"/>
<path d="M170.226 45.9727C171.393 46.8697 171.593 48.4209 170.693 49.592C169.793 50.7632 168.243 50.9688 167.075 50.0718C165.908 49.1747 165.708 47.6236 166.608 46.4524C167.433 45.3789 169.155 45.1504 170.226 45.9727Z" fill="#FFCF2D"/>
<path d="M77.4672 196.674C78.6345 197.571 78.8349 199.122 77.9349 200.293C77.0349 201.464 75.4844 201.67 74.3172 200.773C73.1499 199.876 72.9494 198.325 73.8494 197.154C74.7495 195.982 76.2999 195.777 77.4672 196.674Z" fill="#FFCF2D"/>
<path d="M90.8925 179.205C92.0598 180.102 92.2602 181.653 91.3602 182.824C90.4602 183.996 88.9097 184.201 87.7424 183.304C86.5752 182.407 86.3747 180.856 87.2747 179.685C88.0998 178.611 89.7252 178.308 90.8925 179.205Z" fill="#FFCF2D"/>
<path d="M104.243 161.832C105.41 162.729 105.61 164.28 104.71 165.451C103.81 166.623 102.26 166.828 101.093 165.931C99.9253 165.034 99.7248 163.483 100.625 162.312C101.525 161.141 103.075 160.935 104.243 161.832Z" fill="#FFCF2D"/>
<path d="M118.136 147.983C119.005 146.851 118.796 145.23 117.668 144.363C116.54 143.496 114.92 143.711 114.05 144.843C113.18 145.975 113.39 147.595 114.518 148.462C115.646 149.329 117.266 149.115 118.136 147.983Z" fill="#FFCF2D"/>
<path d="M131.093 126.893C132.26 127.79 132.461 129.341 131.561 130.512C130.661 131.683 129.11 131.889 127.943 130.992C126.776 130.095 126.575 128.544 127.475 127.372C128.3 126.299 129.926 125.996 131.093 126.893Z" fill="#FFCF2D"/>
<path d="M144.518 109.422C145.686 110.319 145.886 111.87 144.986 113.041C144.086 114.212 142.536 114.418 141.368 113.521C140.201 112.624 140.001 111.073 140.901 109.902C141.801 108.73 143.351 108.525 144.518 109.422Z" fill="#FFCF2D"/>
<path d="M157.869 92.0508C159.036 92.9479 159.236 94.499 158.336 95.6702C157.436 96.8413 155.886 97.0469 154.719 96.1499C153.551 95.2529 153.351 93.7017 154.251 92.5305C155.151 91.3594 156.701 91.1538 157.869 92.0508Z" fill="#FFCF2D"/>
<path d="M171.762 78.1995C172.631 77.0675 172.422 75.4471 171.294 74.5801C170.166 73.7131 168.546 73.9279 167.676 75.0598C166.806 76.1918 167.016 77.8122 168.144 78.6792C169.272 79.5462 170.892 79.3314 171.762 78.1995Z" fill="#FFCF2D"/>
<path d="M184.719 57.1114C185.886 58.0084 186.087 59.5595 185.187 60.7307C184.287 61.9019 182.736 62.1075 181.569 61.2104C180.402 60.3134 180.201 58.7622 181.101 57.5911C181.926 56.5175 183.552 56.2143 184.719 57.1114Z" fill="#FFCF2D"/>
<path d="M91.9609 207.813C93.1282 208.71 93.3286 210.261 92.4286 211.432C91.5286 212.603 89.9781 212.809 88.8108 211.912C87.6435 211.015 87.4431 209.463 88.3431 208.292C89.2431 207.121 90.7936 206.916 91.9609 207.813Z" fill="#FFCF2D"/>
<path d="M105.386 190.342C106.553 191.239 106.754 192.79 105.854 193.961C104.954 195.132 103.403 195.338 102.236 194.441C101.069 193.544 100.868 191.993 101.768 190.822C102.593 189.748 104.219 189.445 105.386 190.342Z" fill="#FFCF2D"/>
<path d="M118.736 172.971C119.904 173.868 120.104 175.419 119.204 176.59C118.304 177.761 116.753 177.967 115.586 177.07C114.419 176.173 114.218 174.622 115.118 173.45C116.018 172.279 117.569 172.074 118.736 172.971Z" fill="#FFCF2D"/>
<path d="M132.162 155.5C133.329 156.397 133.529 157.948 132.629 159.119C131.729 160.291 130.179 160.496 129.012 159.599C127.844 158.702 127.644 157.151 128.544 155.98C129.444 154.809 130.994 154.603 132.162 155.5Z" fill="#FFCF2D"/>
<path d="M145.587 138.031C146.754 138.928 146.955 140.479 146.055 141.651C145.155 142.822 143.604 143.027 142.437 142.13C141.27 141.233 141.069 139.682 141.969 138.511C142.794 137.437 144.42 137.134 145.587 138.031Z" fill="#FFCF2D"/>
<path d="M159.012 120.561C160.179 121.458 160.38 123.009 159.48 124.18C158.58 125.351 157.029 125.557 155.862 124.66C154.695 123.763 154.494 122.211 155.394 121.04C156.294 119.869 157.845 119.664 159.012 120.561Z" fill="#FFCF2D"/>
<path d="M172.362 103.19C173.53 104.087 173.73 105.638 172.83 106.809C171.93 107.98 170.379 108.186 169.212 107.289C168.045 106.392 167.844 104.84 168.744 103.669C169.644 102.498 171.195 102.292 172.362 103.19Z" fill="#FFCF2D"/>
<path d="M185.788 85.7188C186.955 86.6158 187.155 88.167 186.255 89.3381C185.355 90.5093 183.805 90.7149 182.637 89.8179C181.47 88.9208 181.27 87.3697 182.17 86.1985C183.07 85.0274 184.62 84.8218 185.788 85.7188Z" fill="#FFCF2D"/>
<path d="M199.213 68.2501C200.38 69.1471 200.581 70.6982 199.681 71.8694C198.781 73.0406 197.23 73.2462 196.063 72.3491C194.895 71.4521 194.695 69.9009 195.595 68.7298C196.42 67.6562 198.046 67.353 199.213 68.2501Z" fill="#FFCF2D"/>
<path d="M106.357 218.875C107.525 219.772 107.725 221.323 106.825 222.494C105.925 223.666 104.375 223.871 103.207 222.974C102.04 222.077 101.84 220.526 102.74 219.355C103.64 218.184 105.287 218.053 106.357 218.875Z" fill="#FFCF2D"/>
<path d="M119.783 201.406C120.95 202.303 121.15 203.854 120.25 205.026C119.35 206.197 117.8 206.402 116.633 205.505C115.465 204.608 115.265 203.057 116.165 201.886C116.99 200.812 118.713 200.584 119.783 201.406Z" fill="#FFCF2D"/>
<path d="M133.133 184.033C134.3 184.93 134.5 186.481 133.6 187.653C132.7 188.824 131.15 189.029 129.983 188.132C128.815 187.235 128.615 185.684 129.515 184.513C130.415 183.342 132.063 183.211 133.133 184.033Z" fill="#FFCF2D"/>
<path d="M146.558 166.564C147.725 167.462 147.926 169.013 147.026 170.184C146.126 171.355 144.575 171.561 143.408 170.664C142.241 169.767 142.04 168.215 142.94 167.044C143.84 165.873 145.488 165.742 146.558 166.564Z" fill="#FFCF2D"/>
<path d="M159.983 149.094C161.151 149.991 161.351 151.542 160.451 152.713C159.551 153.884 158.001 154.09 156.833 153.193C155.666 152.296 155.466 150.745 156.366 149.574C157.191 148.5 158.913 148.272 159.983 149.094Z" fill="#FFCF2D"/>
<path d="M173.409 131.625C174.576 132.522 174.776 134.073 173.876 135.244C172.976 136.416 171.426 136.621 170.259 135.724C169.091 134.827 168.891 133.276 169.791 132.105C170.691 130.934 172.339 130.803 173.409 131.625Z" fill="#FFCF2D"/>
<path d="M186.759 114.252C187.926 115.149 188.126 116.7 187.226 117.871C186.326 119.042 184.776 119.248 183.609 118.351C182.441 117.454 182.241 115.903 183.141 114.732C184.041 113.561 185.689 113.43 186.759 114.252Z" fill="#FFCF2D"/>
<path d="M200.184 96.7832C201.351 97.6803 201.552 99.2314 200.652 100.403C199.752 101.574 198.201 101.779 197.034 100.882C195.867 99.9853 195.666 98.4341 196.566 97.263C197.466 96.0918 199.114 95.961 200.184 96.7832Z" fill="#FFCF2D"/>
<path d="M213.609 79.3126C214.777 80.2096 214.977 81.7607 214.077 82.9319C213.177 84.103 211.627 84.3086 210.459 83.4116C209.292 82.5146 209.092 80.9634 209.992 79.7923C210.817 78.7187 212.539 78.4903 213.609 79.3126Z" fill="#FFCF2D"/>
</g>
<defs>
<clipPath id="clip0_2234_9590">
<rect width="181.184" height="132.739" fill="white" transform="translate(0 143.662) rotate(-52.4584)"/>
</clipPath>
</defs>
</svg>
